<svg width="100" height="100" viewBox="0 0 100 100" fill="none" xmlns="http://www.w3.org/2000/svg">
<path d="M56.0625 31.0625C56.9429 30.2243 58.1145 29.7609 59.3301 29.7701C60.5457 29.7793 61.7102 30.2604 62.5778 31.1118C63.4454 31.9632 63.9484 33.1184 63.9805 34.3336C64.0126 35.5488 63.5714 36.7289 62.75 37.625L37.8125 68.8125C37.3837 69.2744 36.8662 69.645 36.2908 69.9023C35.7155 70.1596 35.0942 70.2982 34.4641 70.3099C33.834 70.3215 33.2079 70.206 32.6235 69.9702C32.039 69.7344 31.5081 69.3832 31.0625 68.9375L14.525 52.4C14.0645 51.9709 13.6951 51.4534 13.4389 50.8784C13.1827 50.3034 13.0449 49.6827 13.0338 49.0533C13.0227 48.4239 13.1385 47.7987 13.3742 47.215C13.61 46.6313 13.9609 46.1011 14.406 45.656C14.8511 45.2109 15.3813 44.86 15.965 44.6242C16.5487 44.3885 17.1739 44.2727 17.8033 44.2838C18.4327 44.2949 19.0534 44.4327 19.6284 44.6889C20.2034 44.9451 20.7209 45.3145 21.15 45.775L34.2375 58.8562L55.9375 31.2C55.9764 31.1517 56.0182 31.1058 56.0625 31.0625ZM50.3125 63.1875L56.0625 68.9375C56.508 69.3822 57.0385 69.7326 57.6224 69.9678C58.2063 70.2031 58.8315 70.3183 59.4609 70.3066C60.0903 70.2949 60.7109 70.1566 61.2856 69.8999C61.8604 69.6432 62.3775 69.2734 62.8063 68.8125L87.7563 37.625C88.2045 37.1825 88.5589 36.6542 88.7984 36.0717C89.0379 35.4892 89.1575 34.8644 89.1502 34.2346C89.1428 33.6048 89.0086 32.983 88.7556 32.4062C88.5026 31.8295 88.136 31.3096 87.6776 30.8777C87.2192 30.4458 86.6785 30.1106 86.0877 29.8923C85.4969 29.674 84.8682 29.577 84.2391 29.6071C83.61 29.6372 82.9934 29.7938 82.4261 30.0674C81.8589 30.3411 81.3526 30.7263 80.9375 31.2L59.2313 58.8562L56.2 55.8187L50.3063 63.1875H50.3125Z" fill="white"/>
</svg>
