<svg width="100" height="100" viewBox="0 0 100 100" fill="none" xmlns="http://www.w3.org/2000/svg">
<path d="M68.5625 31.0625C69.4429 30.2243 70.6145 29.7609 71.8301 29.7701C73.0457 29.7793 74.2102 30.2604 75.0778 31.1118C75.9454 31.9632 76.4484 33.1184 76.4805 34.3336C76.5126 35.5488 76.0714 36.7289 75.25 37.625L50.3125 68.8125C49.8837 69.2744 49.3662 69.645 48.7908 69.9023C48.2155 70.1596 47.5942 70.2982 46.9641 70.3099C46.334 70.3215 45.7079 70.206 45.1235 69.9702C44.539 69.7344 44.0081 69.3832 43.5625 68.9375L27.025 52.4C26.5645 51.9709 26.1951 51.4534 25.9389 50.8784C25.6827 50.3034 25.5449 49.6827 25.5338 49.0533C25.5227 48.4239 25.6385 47.7987 25.8742 47.215C26.11 46.6313 26.4609 46.1011 26.906 45.656C27.3511 45.2109 27.8813 44.86 28.465 44.6242C29.0487 44.3885 29.6739 44.2727 30.3033 44.2838C30.9327 44.2949 31.5534 44.4327 32.1284 44.6889C32.7034 44.9451 33.2209 45.3145 33.65 45.775L46.7375 58.8563L68.4438 31.2C68.4828 31.1519 68.5183 31.106 68.5625 31.0625Z" fill="#030716"/>
</svg>
